HIERARCHY
ROOT pelvis
{
  OFFSET 0 100 0
  CHANNELS 6 Xposition Yposition Zposition Zrotation Xrotation Yrotation
  JOINT pelvis_right_femur
  {
    OFFSET -10.78128 -3.44521 -0.5502486
    CHANNELS 3 Zrotation Xrotation Yrotation
    JOINT right_femur_tibia
    {
      OFFSET -0.8047443 -44.0398 -0.1307829
      CHANNELS 3 Zrotation Xrotation Yrotation
      JOINT right_tibia_foot
      {
        OFFSET 3.006224 -47.83518 -5
        CHANNELS 3 Zrotation Xrotation Yrotation
        End Site
        {
          OFFSET 0 -5 15
        }
      }
    }
  }
  JOINT pelvis_left_femur
  {
    OFFSET 10.78128 -3.44521 -0.5502486
    CHANNELS 3 Zrotation Xrotation Yrotation
    JOINT left_femur_tibia
    {
      OFFSET 0.8047443 -44.0398 -0.1307829
      CHANNELS 3 Zrotation Xrotation Yrotation
      JOINT left_tibia_foot
      {
        OFFSET -4.370144 -48.10324 -4.275266
        CHANNELS 3 Zrotation Xrotation Yrotation
        End Site
        {
          OFFSET 0 -5 15
        }
      }
    }
  }
  JOINT pelvis_spine1
  {
    OFFSET 0 6.468898 -3.129235
    CHANNELS 3 Zrotation Xrotation Yrotation
    JOINT spine1
    {
      OFFSET 0 23.15396 4.99043
      CHANNELS 3 Zrotation Xrotation Yrotation
      JOINT spine2
      {
        OFFSET 0 20.79997 -5.064912
        CHANNELS 3 Zrotation Xrotation Yrotation
        JOINT neck
        {
          OFFSET 0 14.38658 9.616178
          CHANNELS 3 Zrotation Xrotation Yrotation
          End Site
          {
            OFFSET 0 20 0
          }
        }
      }
      JOINT right_manubrium
      {
        OFFSET -5.722621 16.35077 3.967754
        CHANNELS 3 Zrotation Xrotation Yrotation
        JOINT right_clavicle
        {
          OFFSET -13.16364 1.694482 -4.693211
          CHANNELS 3 Zrotation Xrotation Yrotation
          JOINT right_humerus
          {
            OFFSET -28.5034 -0.3100689 -2.792744
            CHANNELS 3 Zrotation Xrotation Yrotation
            JOINT right_radius
            {
              OFFSET -25.15693 0.02248979 -1.271978
              CHANNELS 3 Zrotation Xrotation Yrotation
              End Site
              {
                OFFSET -15 0 0
              }
            }
          }
        }
      }
      JOINT left_manubrium
      {
        OFFSET 5.722621 16.35077 3.967754
        CHANNELS 3 Zrotation Xrotation Yrotation
        JOINT left_clavicle
        {
          OFFSET 13.16364 1.694482 -4.693211
          CHANNELS 3 Zrotation Xrotation Yrotation
          JOINT left_humerus
          {
            OFFSET 29.39168 -1.063119 -2.237045
            CHANNELS 3 Zrotation Xrotation Yrotation
            JOINT left_radius
            {
              OFFSET 24.59957 -0.9528479 0.9047498
              CHANNELS 3 Zrotation Xrotation Yrotation
              End Site
              {
                OFFSET 15 -0 -0
              }
            }
          }
        }
      }
    }
  }
}
MOTION
Frames: 6
Frame Time: 0.0416666666667
0 103.5113 0 1.265258 -1.132119 0.8169755 1.106887 -14.955 7.483977 1.883811e-10 41.57597 -1.102181e-10 0.1769796 -10.35001 -4.934379 -7.050121 7.232672 -17.87432 -1.433403e-10 5.006029 -2.799652e-10 -0.06463649 -19.22569 20.86061 -4.008024 -1.060536 4.270118 1.427237 7.67018 -6.818163 1.464021 22.20415 7.462941 2.819487 -21.88329 9.620458 6.632979 -16.85191 10.32949 83.25067 36.11556 -15.76121 1.745566e-11 -3.165257e-12 15.1412 -13.65522 11.39958 8.492566 5.149325 -17.17372 -1.348918 -90.34338 30.62303 17.86004 -6.027529e-12 -1.818594e-11 -17.5757 0.3897155 11.36354 15.02136
0.5969137 103.4672 3.646719 1.286573 -0.9597564 1.65909 1.106706 -16.58168 7.450493 1.882616e-10 42.24408 -1.128463e-10 0.1310457 -10.01856 -5.064086 -7.190508 8.775025 -18.29006 -1.643373e-10 4.080406 -3.062774e-10 0.1851785 -19.91914 20.94516 -4.115948 -1.107069 4.067106 1.515979 7.642385 -7.018396 1.443278 22.30828 7.601304 2.888322 -22.09763 9.765125 6.750265 -16.71604 10.33857 84.10761 36.36161 -16.57882 1.745569e-11 -1.149619e-13 14.78722 -13.43653 11.36682 8.343402 5.286315 -17.42955 -1.367928 -90.49964 30.84066 17.43137 -6.913053e-12 -1.779972e-11 -18.2035 0.5197783 11.55639 14.92134
1.203388 103.4151 7.264095 1.267003 -0.827897 2.528576 1.218726 -18.4355 7.313929 1.715263e-10 42.1577 -1.033197e-10 -0.06016905 -9.564079 -5.204509 -7.24674 10.50311 -18.51914 -1.767137e-10 3.873824 -3.185358e-10 0.3633403 -20.48361 20.84287 -4.145961 -1.150023 3.830091 1.624355 7.659108 -7.247966 1.423648 22.36258 7.688335 2.940352 -22.25679 9.846902 6.767532 -16.50816 10.3365 84.96585 36.41911 -17.55049 1.640337e-11 2.288409e-12 14.20243 -13.18363 11.32412 8.095013 5.438955 -17.80543 -1.458475 -90.28521 30.8744 16.70006 -7.713639e-12 -1.703727e-11 -19.02414 0.8122458 11.78493 14.56342
1.796749 103.3598 10.87506 1.209223 -0.7400583 3.397401 1.436803 -20.41811 7.094382 1.392111e-10 41.31107 -8.23749e-11 -0.3790274 -9.025167 -5.34778 -7.223353 12.31945 -18.55376 -1.788725e-10 4.421667 -3.150229e-10 0.4502963 -20.88615 20.55432 -4.096231 -1.186449 3.573788 1.748291 7.716154 -7.495528 1.405989 22.36337 7.720503 2.972505 -22.35431 9.862051 6.689534 -16.2356 10.32422 85.76745 36.29537 -18.61772 1.433646e-11 3.777334e-12 13.41761 -12.9043 11.27623 7.759021 5.596818 -18.27846 -1.611502 -89.71842 30.7245 15.70687 -8.369162e-12 -1.599261e-11 -19.99818 1.245806 12.02874 13.97681
2.355075 103.3065 14.50811 1.115897 -0.7030471 4.235399 1.761294 -22.46157 6.810241 9.305773e-11 39.70393 -5.170835e-11 -0.8173476 -8.435047 -5.490145 -7.12779 14.15242 -18.39184 -1.699237e-10 5.778647 -2.944556e-10 0.4322938 -21.10639 20.08993 -3.965122 -1.214906 3.312498 1.885953 7.81767 -7.756909 1.391045 22.32166 7.697989 2.98515 -22.39728 9.812538 6.521441 -15.91474 10.31075 86.5349 35.99989 -19.76739 1.124925e-11 4.143367e-12 12.46254 -12.61616 11.2336 7.349555 5.754949 -18.84579 -1.823192 -88.88151 30.38621 14.51298 -8.831448e-12 -1.473675e-11 -21.10898 1.808751 12.27915 13.18586
2.867118 103.2616 18.18109 1.002934 -0.7038314 5.019124 2.142066 -24.33535 6.510359 4.13458e-11 37.57995 -1.760483e-11 -1.299364 -7.874085 -5.613482 -6.985477 15.79993 -18.07162 -1.525429e-10 7.694531 -2.609789e-10 0.3167837 -21.13052 19.50408 -3.776243 -1.231694 3.072499 2.021458 7.933776 -7.997914 1.379241 22.22729 7.62736 2.975986 -22.37371 9.705987 6.296676 -15.56601 10.28809 87.08823 35.59663 -20.82181 7.564121e-12 3.350967e-12 11.44929 -12.32783 11.19373 6.909374 5.889366 -19.4128 -2.055663 -87.82442 29.91716 13.24354 -9.06277e-12 -1.350032e-11 -22.20975 2.412217 12.48722 12.30863
